Bar_None Position_1/16 Note_Velocity_16 Note_On_75 Note_Duration_7 Position_1/16 Note_Velocity_16 Note_On_75 Note_Duration_3 Note_Duration_3 Note_Duration_11 Note_Duration_11 Note_Duration_11 Position_1/16 Note_Velocity_18 Note_On_75 Note_Duration_5 Position_1/16 Note_Velocity_15 Note_On_44 Note_Duration_19 Position_3/16 Note_Velocity_14 Note_On_51 Note_Duration_3 Position_1/16 Note_Velocity_15 Note_On_58 Note_Duration_11 Position_3/16 Note_Velocity_16 Note_On_75 Note_Duration_7 Position_5/16 Tempo_Class_slow Note_Duration_3 Position_5/16 Tempo_Class_slow Note_Duration_7 Position_5/16 Tempo_Class_slow Note_Duration_15 Position_5/16 Tempo_Class_mid Tempo_Value_35 Position_5/16 Note_Velocity_17 Note_On_60 Note_Duration_5 Position_5/16 Note_Velocity_14 Position_5/16 Note_Velocity_17 Note_On_75 Note_Duration_7 Position_5/16 Note_Velocity_14 Note_On_56 Note_Duration_7 Position_5/16 Note_Velocity_16 Note_Velocity_16 Note_On_60 Note_Duration_15 Position_5/16 Note_Velocity_16 Note_On_72 Note_Duration_7 Position_5/16 Note_Velocity_16 Note_On_72 Note_Duration_7 Position_5/16 Note_Velocity_16 Note_On_75 Note_Duration_11 Position_5/16 Position_5/16 Position_5/16 Note_Velocity_16 Note_On_72 Note_Duration_5 Position_5/16 Note_Velocity_18 Note_On_79 Note_Duration_7 Position_7/16 Note_Velocity_14 Note_On_48 Note_Duration_15 Position_8/16 Note_Velocity_14 Note_On_60 Note_Duration_18 Position_8/16 Note_Velocity_15 Note_On_72 Note_Duration_1 Position_9/16 Tempo_Class_mid Tempo_Value_11 Position_9/16 Tempo_Class_slow Note_Duration_3 Position_11/16 Note_Velocity_16 Note_On_72 Note_Duration_11 Position_11/16 Note_Velocity_17 Note_On_75 Note_Duration_3 Position_13/16 Tempo_Class_mid Tempo_Value_11 Position_15/16 Note_Velocity_16 Note_Velocity_16 Note_On_60 Note_Duration_3 Position_15/16 Note_Velocity_14 Note_Velocity_16 Note_On_72 Note_Duration_7 Position_15/16 Note_Velocity_16 Note_On_70 Note_Duration_3 Position_15/16 Note_Velocity_14 Note_On_48 Note_Duration_19 Position_15/16 Note_Velocity_18 Note_On_79 Note_Duration_3 Bar_None Position_1/16 Position_1/16 Position_1/16 Position_1/16 Position_1/16 Position_1/16 Position_1/16 Position_3/16 Note_Velocity_17 Note_On_72 Note_Duration_3 Position_1/16 Position_1/16 Position_1/16 Position_1/16 Position_1/16 Position_1/16 Chord_C:min Position_1/16 Position_1/16 Position_1/16 Position_1/16 Position_1/16 Position_1/16 Position_1/16 Position_1/16 Position_1/16 Position_1/16 Position_1/16 Position_1/16 Position_1/16 Position_1/16 Position_1/16 Position_1/16 Position_1/16 Tempo_Class_mid Tempo_Value_10 Position_1/16 Note_Velocity_14 Note_On_44 Note_Duration_32 Position_1/16 Note_Velocity_15 Note_On_60 Note_Duration_32 Position_1/16 Note_Velocity_16 Position_1/16 Note_Velocity_16 Note_Velocity_16 Note_On_72 Note_Duration_11 Position_1/16 Note_Velocity_18 Note_On_75 Note_Duration_11 Position_3/16 Note_Velocity_13 Note_On_53 Note_Duration_7 Position_4/16 Note_Velocity_17 Note_On_75 Note_Duration_3 Position_5/16 Tempo_Class_slow Tempo_Value_38 Position_5/16 Tempo_Class_mid Tempo_Value_37 Position_5/16 Note_Velocity_16 Note_On_60 Note_Duration_15 Position_5/16 Tempo_Class_slow Tempo_Value_38 Position_5/16 Tempo_Class_mid Tempo_Value_32 Position_5/16 Note_Velocity_12 Note_On_60 Note_Duration_7 Position_5/16 Note_Velocity_15 Note_On_72 Note_Duration_3 Position_5/16 Note_Velocity_17 Note_On_72 Note_Duration_11 Position_5/16 Tempo_Class_mid Tempo_Value_35 Position_5/16 Note_Velocity_18 Note_On_75 Note_Duration_7 Position_5/16 Note_Velocity_16 Note_On_60 Note_Duration_7 Position_5/16 Tempo_Class_slow Tempo_Value_39 Position_1/16 Note_Velocity_14 Note_Velocity_15 Note_On_37 Note_On_37 Note_Duration_7 Position_5/16 Tempo_Class_mid Tempo_Value_35 Position_5/16 Position_5/16 Tempo_Class_mid Tempo_Value_35 Position_5/16 Note_Velocity_15 Note_On_49 Note_Duration_7 Position_5/16 Note_Velocity_17 Note_On_53 Note_Duration_7 Position_5/16 Tempo_Class_mid Tempo_Value_35 Position_5/16 Tempo_Class_mid Tempo_Value_40 Position_5/16 Note_Velocity_16 Note_On_60 Note_Duration_7 Position_9/16 Tempo_Class_mid Tempo_Value_32 Position_5/16 Note_Velocity_16 Note_On_53 Note_Duration_7 Position_5/16 Note_Velocity_17 Note_On_60 Note_On_60 Note_Duration_15 Position_5/16 Tempo_Class_mid Tempo_Value_32 Position_9/16 Tempo_Class_mid Tempo_Value_35 Position_5/16 Tempo_Class_mid Tempo_Value_37 Position_5/16 Tempo_Class_mid Tempo_Value_32 Position_5/16 Note_Velocity_18 Note_On_72 Note_On_72 Note_Duration_3 Position_7/16 Note_Velocity_14 Note_On_48 Note_Duration_3 Position_9/16 Tempo_Class_mid Tempo_Value_37 Tempo_Value_37 Position_5/16 Tempo_Class_mid Tempo_Value_37 Position_5/16 Note_Velocity_16 Note_On_55 Note_Duration_24 Position_5/16 Tempo_Class_mid Tempo_Value_35 Position_5/16 Note_Velocity_15 Note_On_43 Note_Duration_24 Position_5/16 Tempo_Class_mid Tempo_Value_37 Position_5/16 Note_Velocity_16 Note_On_72 Note_Duration_3 Position_7/16 Note_Velocity_14 Note_On_43 Note_Duration_19 Position_9/16 Tempo_Class_mid Tempo_Value_37 Position_5/16 Tempo_Class_mid Tempo_Value_37 Position_5/16 Note_Velocity_15 Note_On_48 Note_Duration_23 Position_5/16 Position_5/16 Tempo_Class_slow Tempo_Value_39 Position_5/16 Note_Velocity_15 Note_On_72 Note_On_72 Note_Duration_7 Position_5/16 Tempo_Class_mid Tempo_Value_40 Position_5/16 Tempo_Class_mid Tempo_Value_37 Position_9/16 Chord_C:maj Position_1/16 Tempo_Class_mid Tempo_Value_35 Position_5/16 Note_Velocity_16 Note_On_60 Note_On_60 Note_Duration_23 Position_9/16 Tempo_Class_mid Tempo_Value_32 Position_9/16 Tempo_Class_mid Tempo_Value_35 Position_5/16 Note_Velocity_18 Note_On_75 Note_On_75 Note_Duration_24 Position_9/16 Tempo_Class_mid Tempo_Value_32 Position_1/16 Note_Velocity_14 Note_On_60 Note_Duration_16 Position_5/16 Tempo_Class_mid Tempo_Value_35 Position_5/16 Note_Velocity_16 Note_On_72 Note_Duration_7 Position_9/16 Chord_C:min Position_1/16 Tempo_Class_mid Tempo_Value_40 Position_1/16 Tempo_Class_slow Tempo_Value_35 Tempo_Value_35 Position_5/16 Tempo_Class_mid Tempo_Value_35 Position_9/16 Tempo_Class_mid Tempo_Value_35 Position_9/16 Note_Velocity_15 Note_On_72 Note_Duration_24 Position_13/16 Tempo_Class_mid Tempo_Value_37 Position_5/16 Tempo_Class_mid Tempo_Value_35 Position_5/16 Tempo_Class_mid Tempo_Value_30 Position_9/16 Chord_A:min Position_5/16 Tempo_Class_mid Tempo_Value_35 Position_5/16 Tempo_Class_mid Tempo_Value_30 Position_1/16 Note_Velocity_10 Note_On_60 Note_Duration_41 Position_1/16 Tempo_Class_mid Tempo_Value_35 Position_1/16 Tempo_Class_mid Tempo_Value_37 Bar_None Position_1/16 Chord_A:min Position_1/16 Tempo_Class_mid Tempo_Value_37 Position_1/16 Tempo_Class_mid Tempo_Value_35 Position_5/16 Tempo_Class_mid Tempo_Value_35 Position_5/16 Tempo_Class_mid Tempo_Value_35 Position_5/16 Note_Velocity_16 Note_On_72 Note_Duration_7 Position_9/16 Tempo_Class_mid Tempo_Value_30 Position_5/16 Note_Velocity_13 Note_On_55 Note_Duration_24 Position_5/16 Note_Velocity_17 Note_On_72 Note_Duration_23 Position_5/16 Note_Velocity_17 Note_On_77 Note_On_77 Note_Duration_23 Position_9/16 Chord_F:min Position_1/16 Tempo_Class_mid Tempo_Value_35 Position_5/16 Tempo_Class_mid Tempo_Value_37 Position_9/16 Tempo_Class_mid Tempo_Value_35 Position_9/16 Tempo_Class_mid Tempo_Value_32 Position_9/16 Note_Velocity_14 Note_On_60 Note_Duration_40 Position_5/16 Tempo_Class_mid Tempo_Value_30 Position_9/16 Note_Velocity_16 Note_On_72 Note_Duration_7 Position_9/16 Chord_C#:maj Position_9/16 Tempo_Class_mid Tempo_Value_37 Position_5/16 Tempo_Class_mid Tempo_Value_35 Position_5/16 Note_Velocity_18 Note_On_72 Note_On_72 Note_On_72 Note_Duration_8 Position_8/16 Note_Velocity_16 Note_On_70 Note_Duration_18 Position_8/16 Note_Velocity_19 Note_On_75 Note_On_75 Note_On_72 Note_On_76 Note_Duration_18 Position_8/16 Note_Velocity_16 Note_On_67 Note_Duration_18 Position_9/16 Tempo_Class_slow Tempo_Value_38 Position_9/16 Note_Velocity_15 Note_On_72 Note_Duration_18 Position_9/16 Chord_F:min Position_1/16 Tempo_Class_mid Tempo_Value_30 Position_1/16 Note_Velocity_13 Note_On_49 Note_On_73 Note_On_73 Note_On_76 Note_On_48 Note_On_48 Note_On_48 Note_On_48 Note_On_72 Note_On_72 Note_On_72 Note_On_75 Note_On_75 Note_On_75 Note_On_48 Note_On_36 Note_Duration_18 Position_8/16 Note_Velocity_15 Note_On_70 Note_On_70 Note_Duration_3 Position_8/16 Note_Velocity_19 Note_On_70 Note_Duration_18 Position_8/16 Note_Velocity_18 Note_On_72 Note_Duration_18 Position_9/16 Tempo_Class_mid Tempo_Value_30 Position_5/16 Tempo_Class_mid Tempo_Value_35 Position_9/16 Chord_C#:maj Position_1/16 Tempo_Class_slow Tempo_Value_35 Position_9/16 Tempo_Class_mid Tempo_Value_40 Position_9/16 Tempo_Class_mid Tempo_Value_37 Position_11/16 Note_Velocity_15 Note_On_68 Note_Duration_7 Position_5/16 Tempo_Class_fast Tempo_Value_21 Position_5/16 Note_Velocity_16 Note_On_72 Note_Duration_3 Position_7/16 Note_Velocity_17 Note_On_68 Note_Duration_11 Position_9/16 Tempo_Class_mid Tempo_Value_35 Position_9/16 Note_Velocity_18 Note_On_72 Note_Duration_23 Position_5/16 Tempo_Class_mid Tempo_Value_30 Position_5/16 Note_Velocity_18 Note_On_77 Note_Duration_7 Position_7/16 Note_Velocity_18 Note_On_79 Note_On_76 Note_Duration_23 Position_5/16 Tempo_Class_mid Tempo_Value_35 Position_9/16 Chord_A:min Position_1/16 Tempo_Class_slow Tempo_Value_30 Position_1/16 Tempo_Class_mid Tempo_Value_32 Position_5/16 Tempo_Class_mid Tempo_Value_37 Position_5/16 Note_Velocity_16 Note_On_72 Note_Duration_26 Position_9/16 Chord_F:min Chord_F:min Position_1/16 Tempo_Class_mid Tempo_Value_37 Tempo_Class_fast Tempo_Value_37 Tempo_Value_37 Tempo_Value_37 Position_5/16 Tempo_Class_fast Tempo_Value_21 Position_9/16 Chord_G#:maj Position_1/16 Tempo_Class_mid Tempo_Value_30 Position_5/16 Tempo_Class_mid Tempo_Value_37 Position_8/16 Note_Velocity_17 Note_On_75 Note_On_75 Note_Duration_42 Position_9/16 Chord_C#:maj Position_1/16 Tempo_Class_fast Tempo_Value_31 Position_5/16 Tempo_Class_mid Tempo_Value_35 Position_5/16 Note_Velocity_18 Note_On_72 Note_On_72 Note_Duration_22 Position_9/16 Chord_G#:maj Position_5/16 Tempo_Class_mid Tempo_Value_40 Position_9/16 Tempo_Class_mid Tempo_Value_30 Position_9/16 Chord_A:min Position_1/16 Tempo_Class_mid Tempo_Value_32 Position_5/16 Tempo_Class_mid Tempo_Value_35 Position_5/16 Note_Velocity_19 Note_On_76 Note_Duration_7 Position_7/16 Note_Velocity_17 Note_On_79 Note_Duration_7 Position_9/16 Tempo_Class_mid Tempo_Value_37 Position_9/16 Note_Velocity_18 Note_On_77 Note_Duration_23 Position_5/16 Tempo_Class_mid Tempo_Value_37 Position_7/16 Note_Velocity_19 Note_On_77 Position_5/16 Note_Velocity_19 Note_On_80 Note_On_80 Note_On_80 Note_Duration_24 Position_9/16 Chord_C#:maj Position_1/16 Tempo_Class_mid Tempo_Value_35 Position_1/16 Note_Velocity_19 Note_On_77 Note_Duration_23 Position_5/16 Tempo_Class_mid Tempo_Value_35 Position_5/16 Note_Velocity_19 Note_On_77 Note_On_77 Note_On_77 Note_Duration_7 Position_9/16 Chord_G#:maj Position_1/16 Tempo_Class_mid Tempo_Value_37 Position_13/16 Tempo_Class_mid Tempo_Value_32 Position_13/16 Tempo_Class_slow Tempo_Value_35 Position_13/16 Note_Velocity_18 Note_On_75 Note_Duration_39 Bar_None Position_1/16 Position_5/16 Tempo_Class_mid Tempo_Value_40 Position_5/16 Note_Velocity_16 Note_On_77 Note_Duration_23 Position_5/16 Note_Velocity_19 Note_On_82 Note_On_82 Note_On_82 Note_On_82 Note_Duration_24 Position_5/16 Note_Velocity_18 Note_On_77 Note_On_77 Note_Duration_24 Position_9/16 Chord_C#:maj Position_1/16 Position_1/16 Position_1/16 Tempo_Class_mid Tempo_Value_30 Position_1/16 Note_Velocity_18 Note_On_75 Note_On_75 Note_Duration_42 Position_5/16 Tempo_Class_mid Tempo_Value_30 Position_9/16 Tempo_Class_mid Tempo_Value_37 Position_9/16 Note_Velocity_15 Note_On_77 Note_Duration_26 Position_5/16 Note_Velocity_18 Note_On_77 Note_Duration_7 Position_9/16 Chord_C#:maj Chord_C#:maj Chord_C#:maj Chord_C#:maj Chord_C#:maj Chord_C#:maj Chord_C#:maj Chord_C#:maj Chord_C#:maj Chord_C#:maj Chord_C#:maj Chord_C#:maj Chord_C#:maj Chord_C#:maj Chord_C#:maj Chord_C#:maj Chord_C#:maj Chord_C#:maj Chord_C#:maj Chord_C#:maj Chord_C#:maj Chord_C#:maj Chord_C#:maj Chord_C#:maj Chord_C#:maj Chord_C#:maj Chord_C#:maj Position_1/16 Tempo_Class_mid Tempo_Value_32 Position_5/16 Tempo_Class_mid Tempo_Value_37 Position_5/16 Note_Velocity_17 Note_On_75 Note_On_75 Note_Duration_39 Note_Duration_39 Note_Duration_39 Note_Duration_39 Bar_None Position_1/16 Position_1/16 Position_5/16 Tempo_Class_fast Tempo_Value_31 Position_1/16 Position_5/16 Tempo_Class_mid Tempo_Value_37 Position_9/16 Chord_C#:maj Chord_C#:maj Chord_C#:maj Chord_C#:maj Chord_C#:maj Chord_C#:maj Chord_C#:maj Chord_C#:maj Chord_C#:maj Chord_C#:maj Position_1/16 Tempo_Class_mid Tempo_Value_35 Position_5/16 Tempo_Class_mid Tempo_Value_35 Position_9/16 Tempo_Class_mid Tempo_Value_37 Position_1/16 Note_Velocity_18 Note_On_75 Note_On_75 Note_Duration_38 Note_Duration_38 Note_Duration_38 Position_5/16 Tempo_Class_mid Tempo_Value_40 Bar_None Position_1/16 Position_5/16 Tempo_Class_mid Tempo_Value_30 Position_1/16 Position_1/16 Position_5/16 Tempo_Class_mid Tempo_Value_37 Position_1/16 Note_Velocity_18 Note_On_68 Note_On_68 Note_Duration_24 Note_Duration_24 Position_5/16 Tempo_Class_mid Tempo_Value_30 Position_5/16 Note_Velocity_17 Note_Velocity_17 Note_On_75 Note_On_75 Note_On_75 Note_Duration_40 Note_Duration_40 Note_Duration_40 Bar_None Position_5/16 Tempo_Class_fast Tempo_Value_37 Position_9/16 Chord_G#:maj Chord_G#:maj Chord_G#:maj Position_1/16 Position_1/16 Position_1/16 Position_1/16 Position_1/16 Position_5/16 Tempo_Class_mid Tempo_Value_32 Position_5/16 Note_Velocity_17 Note_On_80 Note_On_80 Note_Duration_7 Position_9/16 Tempo_Class_mid Tempo_Value_35 Position_13/16 Note_Velocity_17 Note_On_80 Note_On_80 Note_On_80 Note_Duration_39 Bar_None Position_1/16 Position_1/16 Position_5/16 Tempo_Class_mid Tempo_Value_30 Position_1/16 Position_1/16 Position_1/16 Note_Velocity_17 Note_On_37 Note_On_37 Note_On_37 Chord_C#:maj Position_1/16 Note_Velocity_17 Position_5/16 Tempo_Class_mid Tempo_Value_27 Position_9/16 Tempo_Class_mid Tempo_Value_30 Position_13/16 Note_Velocity_17 Note_On_75 Note_On_75 Note_Duration_40 Position_13/16 Tempo_Class_mid Tempo_Value_32 Position_13/16 Note_Velocity_17 Note_Velocity_17 Note_Velocity_18 Note_Velocity_17 Note_Velocity_20 Note_Velocity_20 Note_Velocity_20 Note_Velocity_20 Note_Velocity_20 Note_Velocity_20 Note_Velocity_20 Note_Velocity_20 Note_Velocity_20 Note_Velocity_20 Note_Velocity_20 Note_Velocity_20 Note_Velocity_20 Note_On_75 Note_On_75 Note_Duration_39 Note_Duration_39 Note_Duration_39 Note_Duration_39 Note_Duration_39 Note_Duration_39 Bar_None Position_1/16 Position_5/16 Tempo_Class_slow Position_5/16 Note_Velocity_19 Note_Velocity_19 Note_Velocity_20 Note_Velocity_20 Note_Velocity_20 Note_Velocity_21 Note_On_77 Note_Duration_24 Note_Duration_24 Position_5/16 Note_Velocity_20 Note_Velocity_20 Note_Velocity_20 Note_Velocity_20 Note_Velocity_20 Note_Velocity_20 Note_On_75 Note_On_75 Note_Duration_39 Note_Duration_39 Bar_None Position_1/16 Position_5/16 Tempo_Class_mid Tempo_Value_35 Position_1/16 Position_1/16 Position_1/16 Position_1/16 Position_1/16 Position_1/16 Position_5/16 Tempo_Class_mid Tempo_Value_32 Position_5/16 Note_Velocity_19 Note_Velocity_19 Note_Velocity_19 Note_Velocity_20 Note_Velocity_20 Note_Velocity_20 Note_Velocity_20 Note_Velocity_20 Note_Velocity_20 Note_Velocity_20 Note_Velocity_20 Note_Velocity_21 Note_Velocity_21 Note_Velocity_21 Note_On_75 Note_On_75 Note_On_75 Note_Duration_39 Note_Duration_39 Note_Duration_39 Position_9/16 Tempo_Class_mid Tempo_Value_35 Position_5/16 Tempo_Class_mid Tempo_Value_35 Position_5/16 Note_Velocity_16 Note_Velocity_20 Note_Velocity_20 Note_Velocity_20 Note_Velocity_20 Note_Velocity_21 Note_Velocity_21 Note_Velocity_21 Note_Velocity_21 Note_On_75 Note_On_75 Note_On_75 Note_Duration_24 Note_Duration_24 Note_Duration_24 Note_Duration_24 Bar_None Bar_None Position_1/16 Position_5/16 Tempo_Class_mid Position_5/16 Note_Velocity_20 Note_Velocity_20 Note_Velocity_20 Note_Velocity_20 Note_Velocity_20 Note_Velocity_20 Note_Velocity_20 Note_Velocity_20 Note_Velocity_20 Note_Velocity_20 Note_Velocity_20 Note_Velocity_20 Note_Velocity_21 Note_Velocity_21 Note_Velocity_21 Note_Velocity_21 Note_Velocity_21 Note_Velocity_21 Note_Velocity_21 Note_Velocity_21 Note_Velocity_21 Note_Velocity_21 Note_Velocity_21 Note_Velocity_21 Note_Velocity_21 Note_Velocity_21 Note_Velocity_21 Note_Velocity_21 Note_Velocity_21 Note_Velocity_21 Note_Velocity_21 Note_Velocity_21 Note_Velocity_21 Note_Velocity_21 Note_Velocity_21 Note_Velocity_21 Note_Velocity_21 Note_Velocity_21 Note_Velocity_21 Note_Velocity_21 Note_Velocity_21 Note_Velocity_21 Note_Velocity_21 Note_Velocity_21 Note_Velocity_21 Note_Velocity_21 Note_Velocity_21 Note_Velocity_21 Note_Velocity_21 Note_Velocity_21 Note_Velocity_21 Note_Velocity_21 Note_Velocity_21 Note_Velocity_21 Note_Velocity_21 Note_Velocity_21 Note_Velocity_21 Note_Velocity_21 Note_Velocity_21 Note_Velocity_21 Note_Velocity_21 Note_Velocity_21 Note_Velocity_21 Note_Velocity_21 Note_Velocity_21 Note_Velocity_21 Note_Velocity_21 Note_On_78 Note_Duration_24 Note_Velocity_20 Note_Velocity_20 Note_Velocity_20 Note_Velocity_21 Note_Velocity_21 Note_Velocity_21 Note_Velocity_21 Note_Velocity_21 Note_Velocity_21 Note_Velocity_21 Note_Velocity_21 Note_Velocity_21 Note_Velocity_21 Note_Velocity_21 Note_Velocity_21 Note_Velocity_21 Note_Velocity_21 Note_Velocity_21 Note_Velocity_21 Note_Velocity_21 Note_Velocity_21 Note_Velocity_21 Note_Velocity_21 Note_Velocity_21 Note_Velocity_21 Note_Velocity_21 Note_Velocity_21 Note_Velocity_21 Note_Velocity_21 Note_Velocity_21 Note_Velocity_21 Note_Velocity_21 Note_Velocity_21 Note_Velocity_21 Note_Velocity_21 Note_Velocity_21 Note_Velocity_21 Note_Velocity_21 Note_Velocity_21 Note_Velocity_21 Note_Velocity_21 Note_Velocity_21 Note_Velocity_21 Note_Velocity_21 Note_Velocity_21 Note_Velocity_21 Note_Velocity_21 Note_Velocity_21 Note_Velocity_21 Note_Velocity_21 Note_Velocity_21 Note_Velocity_21 Note_Velocity_21 Note_Velocity_21 Note_Velocity_21 Note_Velocity_21 Note_Velocity_21 Note_Velocity_21 Note_Velocity_21 Note_Velocity_21 Note_Velocity_21 Note_Velocity_21 Note_Velocity_21 Note_Velocity_21 Note_Velocity_21 Note_Velocity_21 Note_Velocity_21 Note_Velocity_21 Note_Velocity_21 Note_Velocity_21 Note_Velocity_21 Note_Velocity_21 Note_Velocity_21 Note_Velocity_21 Note_Velocity_21 Note_Velocity_21 Note_Velocity_21 Note_Velocity_21 Note_Velocity_21 Note_Velocity_21 Note_Velocity_21 Note_Velocity_21 Note_Velocity_21 Note_Velocity_21 Note_Velocity_21 Note_Velocity_21 Note_Velocity_21 Note_Velocity_21 Note_Velocity_21 Note_Velocity_21 Note_Velocity_21 Note_Velocity_21 Note_Velocity_21 Note_Velocity_21 Note_Velocity_21 Note_Velocity_21 Note_Velocity_21 Note_Velocity_21 Note_Velocity_21 Note_Velocity_21 Note_Velocity_21 Note_Velocity_21 Note_Velocity_21 Note_Velocity_21 Note_Velocity_21 Note_Velocity_21 Note_Velocity_21 Note_Velocity_21 Note_Velocity_21 Note_Velocity_21 Note_Velocity_21 Note_Velocity_21 Note_Velocity_21 Note_Velocity_21 Note_Velocity_21 Note_Velocity_21 Note_Velocity_21 Note_Velocity_21 Note_Velocity_21 Note_Velocity_21 Note_Velocity_21 Note_Velocity_21 Note_Velocity_21 Note_Velocity_21 Note_Velocity_21 Note_Velocity_21 Note_Velocity_21 Note_Velocity_21 Note_Velocity_21 Note_Velocity_21 Note_Velocity_21 Note_Velocity_21 Note_Velocity_21 Note_Velocity_21 Note_Velocity_21 Note_Velocity_21 Note_Velocity_21 Note_Velocity_21 Note_Velocity_20 Note_Velocity_20 Note_Velocity_20 Note_Velocity_20 Note_On_64 Note_Duration_7 Note_Duration_7 Position_5/16 Tempo_Class_slow Tempo_Class_slow Tempo_Value_38 Position_1/16 Note_Velocity_16 Note_On_57 Note_Duration_32 Position_1/16 Note_Velocity_17 Note_On_71 Note_Duration_15 Position_1/16 Note_Velocity_16 Note_On_64 Note_Duration_0 Position_1/16 Tempo_Class_mid Tempo_Class_slow Tempo_Value_38 Position_9/16 Note_Velocity_17 Note_Velocity_17 Note_On_71 Note_On_71 Note_Duration_7 Note_Duration_15 Note_Duration_15 Note_Duration_15 Position_1/16 Note_Velocity_16 Note_Velocity_17 Note_Velocity_19 Note_On_74 Note_On_74 Note_Duration_15 Position_5/16 Position_5/16 Note_Velocity_17 Note_On_74 Note_Duration_3 Position_1/16 Note_Velocity_19 Note_On_72 Note_Duration_7 Position_3/16 Note_Velocity_17 Note_On_52 Note_Duration_7 Position_3/16 Note_Velocity_16 Note_On_57 Note_Duration_7 Position_3/16 Note_Velocity_15 Note_On_60 Note_Duration_3 Position_5/16 Tempo_Class_mid Tempo_Class_slow Note_Velocity_16 Note_Velocity_16 Note_Velocity_15 Note_Velocity_16 Note_Velocity_15 Note_Velocity_16 Note_Velocity_16 Note_Velocity_15 Note_Velocity_15 Note_Velocity_15 Note_Velocity_16 Note_Velocity_18 Note_Velocity_17 Note_Velocity_19 Note_On_72 Note_Duration_3 Note_Duration_3 Note_Duration_3 Note_Duration_3 Note_Duration_3 Note_Duration_7 Note_Duration_3 Note_Duration_3 Note_Duration_3 Note_Duration_7 Note_Duration_7 Note_Duration_7 Note_Duration_7 Note_Duration_3 Note_Duration_7 Note_Duration_7 Position_1/16 Note_Velocity_15 Note_Velocity_14 Note_Velocity_15 Note_Velocity_15 Note_Velocity_15 Note_Velocity_15 Note_Velocity_16 Note_Velocity_17 Note_Velocity_17 Note_Velocity_19 Note_Velocity_19 Note_On_81 Note_Duration_3 Note_Duration_3 Position_3/16 Note_Velocity_16 Note_On_52 Note_Duration_11 Note_Duration_11 Note_Duration_3 Note_Duration_3 Note_Duration_3 Note_Duration_3 Note_Duration_3 Note_Duration_3 Note_Duration_3 Note_Duration_7 Note_Duration_7 Position_3/16 Note_Velocity_16 Note_Velocity_16 Note_Velocity_16 Note_Velocity_16 Note_Duration_3 Note_Duration_3 Note_Duration_3 Note_Duration_3 Note_Duration_3 Note_Duration_3 Note_Duration_3 Position_5/16 Tempo_Class_mid Tempo_Class_mid Tempo_Class_mid Tempo_Class_mid Tempo_Class_mid Tempo_Class_mid Tempo_Class_mid Note_Duration_7 Position_5/16 Tempo_Class_mid Tempo_Class_mid Note_Velocity_17 Note_On_60 Note_Duration_23 Position_7/16 Note_Velocity_16 Note_Duration_3 Note_Duration_3 Note_Duration_3 Note_Duration_3 Position_7/16 Note_Velocity_16 Position_9/16 Tempo_Class_slow Tempo_Class_slow Tempo_Class_slow Note_Velocity_16 Note_Velocity_15 Note_On_60 Note_Duration_15 Note_Duration_15 Position_1/16 Position_1/16 Position_1/16 Position_1/16 Position_1/16 Tempo_Class_slow Tempo_Class_slow Tempo_Class_slow Tempo_Class_slow Tempo_Value_48 Position_1/16 Note_Velocity_16 Note_On_72 Note_Duration_3 Position_3/16 Note_Velocity_16 Note_On_72 Note_Duration_3 Note_Duration_3 Note_Duration_3 Position_1/16 Position_1/16 Note_Velocity_16 Note_On_72 Note_Duration_7 Note_Duration_7 Position_5/16 Tempo_Class_mid Tempo_Class_mid Tempo_Class_mid Note_Velocity_16
